<svg width="305" height="80" viewBox="0 0 305 80" fill="none" xmlns="http://www.w3.org/2000/svg">
<rect x="0.5" y="0.5" width="304" height="79" fill="#F3FAFD"/>
<rect x="0.5" y="0.5" width="304" height="79" stroke="#EFD7D7"/>
<path d="M124.151 29.9941C118.006 32.5882 114.211 37.0353 114.211 41.9765C114.211 47.5353 119.09 52.6 126.5 54.7C125.054 57.9118 122.886 60.8765 120.175 63.5941C116.199 67.4235 112.042 71.3765 105.898 71.3765C99.753 71.3765 97.9458 68.9059 90.7169 68.9059C83.6687 68.9059 81.1386 71.5 75.3554 71.5C69.5723 71.5 65.5964 67.9176 61.0783 63.4706C55.1145 57.2941 51.6807 50.1294 51.5 42.5941C51.5 30.3647 63.0663 23.8176 74.6325 23.8176C80.7771 23.8176 85.8373 26.5353 89.6325 26.5353C93.247 26.5353 99.0301 23.6941 105.898 23.6941C113.127 23.5706 119.994 25.9176 124.151 29.9941ZM102.645 18.5059C105.717 16.0353 107.343 12.9471 107.524 9.73529C107.524 9.36471 107.524 8.87059 107.343 8.5C102.102 8.87059 97.2229 10.6 93.7892 13.3176C90.7169 15.6647 88.9096 18.6294 88.7289 21.8412C88.7289 22.2118 88.7289 22.5824 88.9096 22.9529C89.2711 22.9529 89.8133 23.0765 90.1747 23.0765C95.0542 22.8294 99.5723 21.1 102.645 18.5059Z" fill="black"/>
<path d="M136.94 56.5L147.22 26.7H154.26L164.54 56.5H158.62L156.5 50.1H144.98L142.82 56.5H136.94ZM146.54 45.3H154.94L149.98 30.46H151.5L146.54 45.3ZM167.417 64.5V34.74H172.337V39.06L171.857 37.98C172.603 36.8067 173.617 35.9 174.897 35.26C176.177 34.5933 177.657 34.26 179.337 34.26C181.39 34.26 183.243 34.7667 184.897 35.78C186.55 36.7933 187.857 38.1533 188.817 39.86C189.803 41.5667 190.297 43.4867 190.297 45.62C190.297 47.7267 189.817 49.6467 188.857 51.38C187.897 53.1133 186.59 54.4867 184.937 55.5C183.283 56.4867 181.403 56.98 179.297 56.98C177.723 56.98 176.27 56.6733 174.937 56.06C173.63 55.42 172.59 54.5133 171.817 53.34L172.657 52.3V64.5H167.417ZM178.697 52.18C179.897 52.18 180.963 51.9 181.897 51.34C182.83 50.78 183.55 50.0067 184.057 49.02C184.59 48.0333 184.857 46.9 184.857 45.62C184.857 44.34 184.59 43.22 184.057 42.26C183.55 41.2733 182.83 40.5 181.897 39.94C180.963 39.3533 179.897 39.06 178.697 39.06C177.55 39.06 176.51 39.34 175.577 39.9C174.67 40.46 173.95 41.2467 173.417 42.26C172.91 43.2467 172.657 44.3667 172.657 45.62C172.657 46.9 172.91 48.0333 173.417 49.02C173.95 50.0067 174.67 50.78 175.577 51.34C176.51 51.9 177.55 52.18 178.697 52.18ZM194.292 64.5V34.74H199.212V39.06L198.732 37.98C199.478 36.8067 200.492 35.9 201.772 35.26C203.052 34.5933 204.532 34.26 206.212 34.26C208.265 34.26 210.118 34.7667 211.772 35.78C213.425 36.7933 214.732 38.1533 215.692 39.86C216.678 41.5667 217.172 43.4867 217.172 45.62C217.172 47.7267 216.692 49.6467 215.732 51.38C214.772 53.1133 213.465 54.4867 211.812 55.5C210.158 56.4867 208.278 56.98 206.172 56.98C204.598 56.98 203.145 56.6733 201.812 56.06C200.505 55.42 199.465 54.5133 198.692 53.34L199.532 52.3V64.5H194.292ZM205.572 52.18C206.772 52.18 207.838 51.9 208.772 51.34C209.705 50.78 210.425 50.0067 210.932 49.02C211.465 48.0333 211.732 46.9 211.732 45.62C211.732 44.34 211.465 43.22 210.932 42.26C210.425 41.2733 209.705 40.5 208.772 39.94C207.838 39.3533 206.772 39.06 205.572 39.06C204.425 39.06 203.385 39.34 202.452 39.9C201.545 40.46 200.825 41.2467 200.292 42.26C199.785 43.2467 199.532 44.3667 199.532 45.62C199.532 46.9 199.785 48.0333 200.292 49.02C200.825 50.0067 201.545 50.78 202.452 51.34C203.385 51.9 204.425 52.18 205.572 52.18ZM221.167 56.5V26.22H226.407V56.5H221.167ZM241.565 56.98C239.325 56.98 237.365 56.4733 235.685 55.46C234.005 54.4467 232.698 53.0733 231.765 51.34C230.831 49.6067 230.365 47.6867 230.365 45.58C230.365 43.3933 230.831 41.46 231.765 39.78C232.725 38.0733 234.018 36.7267 235.645 35.74C237.298 34.7533 239.138 34.26 241.165 34.26C242.871 34.26 244.365 34.54 245.645 35.1C246.951 35.66 248.058 36.4333 248.965 37.42C249.871 38.4067 250.565 39.54 251.045 40.82C251.525 42.0733 251.765 43.4333 251.765 44.9C251.765 45.2733 251.738 45.66 251.685 46.06C251.658 46.46 251.591 46.8067 251.485 47.1H234.685V43.1H248.525L246.045 44.98C246.285 43.7533 246.218 42.66 245.845 41.7C245.498 40.74 244.911 39.98 244.085 39.42C243.285 38.86 242.311 38.58 241.165 38.58C240.071 38.58 239.098 38.86 238.245 39.42C237.391 39.9533 236.738 40.7533 236.285 41.82C235.858 42.86 235.698 44.1267 235.805 45.62C235.698 46.9533 235.871 48.14 236.325 49.18C236.805 50.1933 237.498 50.98 238.405 51.54C239.338 52.1 240.405 52.38 241.605 52.38C242.805 52.38 243.818 52.1267 244.645 51.62C245.498 51.1133 246.165 50.4333 246.645 49.58L250.885 51.66C250.458 52.7 249.791 53.62 248.885 54.42C247.978 55.22 246.898 55.8467 245.645 56.3C244.418 56.7533 243.058 56.98 241.565 56.98Z" fill="black"/>
</svg>
