<svg width="24" height="25" viewBox="0 0 24 25" fill="none" xmlns="http://www.w3.org/2000/svg">
<path d="M7.48237 16.2105H21.8839L24 4.84211H5.61481L5.14805 2H0V3.89474H3.66899L6.31411 20H22.0426V18.1053H7.79317L7.48237 16.2105Z" fill="#0B3040"/>
<path d="M7 23C7.82843 23 8.5 22.3284 8.5 21.5C8.5 20.6716 7.82843 20 7 20C6.17157 20 5.5 20.6716 5.5 21.5C5.5 22.3284 6.17157 23 7 23Z" fill="#0B3040"/>
<path d="M17 23C17.8284 23 18.5 22.3284 18.5 21.5C18.5 20.6716 17.8284 20 17 20C16.1716 20 15.5 20.6716 15.5 21.5C15.5 22.3284 16.1716 23 17 23Z" fill="#0B3040"/>
</svg>
