<svg width="305" height="80" viewBox="0 0 305 80" fill="none" xmlns="http://www.w3.org/2000/svg">
<rect x="0.5" y="0.5" width="304" height="79" fill="#F3FAFD"/>
<rect x="0.5" y="0.5" width="304" height="79" stroke="#EFD7D7"/>
<g clip-path="url(#clip0_1_178)">
<path d="M217.827 54.5637C217.827 51.7283 220.084 49.795 222.663 49.795C225.243 49.795 227.5 51.7283 227.5 54.5637C227.5 57.3991 225.243 59.3323 222.663 59.3323C220.148 59.3323 217.827 57.3991 217.827 54.5637ZM222.728 54.0481C223.566 54.0481 223.76 53.5971 223.76 53.2104C223.76 52.7593 223.502 52.3727 222.728 52.3727H221.696V54.0481H222.728ZM221.632 54.757V57.3991H220.793V51.6638H222.921C224.147 51.6638 224.727 52.1794 224.727 53.2749C224.727 53.9193 224.276 54.4348 223.695 54.4992C224.211 54.5637 224.34 55.0148 224.469 55.7881C224.534 56.3036 224.662 57.2058 224.856 57.3991H223.824C223.566 56.8836 223.631 56.1103 223.437 55.4659C223.308 54.9503 223.05 54.8214 222.47 54.8214L221.632 54.757ZM226.597 54.5637C226.597 52.2438 224.985 50.5683 222.728 50.5683C220.471 50.5683 218.859 52.2438 218.859 54.5637C218.859 56.8836 220.471 58.559 222.728 58.559C224.92 58.559 226.597 56.8836 226.597 54.5637Z" fill="#FF6200"/>
<path d="M201.124 59.3322L195.578 53.0815L190.097 59.3322H178.489L189.839 46.5729L178.489 33.8781H190.484L196.094 40.0644L201.447 33.8781H212.99L201.705 46.5729L213.184 59.3322H201.124Z" fill="#FF6200"/>
<path d="M156.24 59.3323V19.25H178.489V28.2073H165.656V33.8781H178.489V42.4488H165.656V50.375H178.489V59.3323H156.24Z" fill="#FF6200"/>
<path d="M141.15 53.2104C137.668 53.2104 135.54 49.9884 135.54 46.6374C135.54 43.0287 137.41 39.6134 141.15 39.6134C145.019 39.6134 146.567 43.0932 146.567 46.6374C146.567 50.0528 144.955 53.2104 141.15 53.2104ZM107.81 42.5776C108.39 40.0644 110.389 38.389 112.84 38.389C115.548 38.389 117.418 40 117.934 42.5776H107.81ZM146.825 19.25V35.618H146.696C144.632 33.2337 141.988 32.396 139.022 32.396C132.831 32.396 128.188 36.5846 126.576 42.1266C124.705 36.0047 119.933 32.2671 112.775 32.2671C106.971 32.2671 102.457 34.8447 100.071 39.0978V33.8781H88.1406V28.2073H101.167V19.25H77.5V59.3323H88.1406V42.4488H98.7812C98.4587 43.6731 98.2653 45.0264 98.2653 46.3797C98.2653 54.757 104.65 60.6211 112.84 60.6211C119.675 60.6211 124.19 57.3991 126.64 51.5349H117.483C116.258 53.2748 115.29 53.7904 112.84 53.7904C110.002 53.7904 107.487 51.2772 107.487 48.3129H126.06C126.834 54.9503 132.057 60.6856 139.151 60.6856C142.182 60.6856 145.019 59.2034 146.761 56.6258H146.89V59.2034H156.305V19.25H146.825Z" fill="#4D148C"/>
</g>
<defs>
<clipPath id="clip0_1_178">
<rect width="150" height="41.5" fill="white" transform="translate(77.5 19.25)"/>
</clipPath>
</defs>
</svg>
