<svg width="21" height="20" viewBox="0 0 21 20" fill="none" xmlns="http://www.w3.org/2000/svg">
<g clip-path="url(#clip0_1_727)">
<path d="M16.2895 15.7895C16.8478 15.7895 17.3833 16.0113 17.7781 16.4061C18.1729 16.8009 18.3947 17.3364 18.3947 17.8947C18.3947 18.4531 18.1729 18.9886 17.7781 19.3834C17.3833 19.7782 16.8478 20 16.2895 20C15.7311 20 15.1956 19.7782 14.8008 19.3834C14.406 18.9886 14.1842 18.4531 14.1842 17.8947C14.1842 17.3364 14.406 16.8009 14.8008 16.4061C15.1956 16.0113 15.7311 15.7895 16.2895 15.7895ZM16.2895 16.8421C16.0103 16.8421 15.7426 16.953 15.5452 17.1504C15.3477 17.3478 15.2368 17.6156 15.2368 17.8947C15.2368 18.1739 15.3477 18.4417 15.5452 18.6391C15.7426 18.8365 16.0103 18.9474 16.2895 18.9474C16.5686 18.9474 16.8364 18.8365 17.0338 18.6391C17.2312 18.4417 17.3421 18.1739 17.3421 17.8947C17.3421 17.6156 17.2312 17.3478 17.0338 17.1504C16.8364 16.953 16.5686 16.8421 16.2895 16.8421ZM6.81579 15.7895C7.37414 15.7895 7.90962 16.0113 8.30444 16.4061C8.69925 16.8009 8.92105 17.3364 8.92105 17.8947C8.92105 18.4531 8.69925 18.9886 8.30444 19.3834C7.90962 19.7782 7.37414 20 6.81579 20C6.25744 20 5.72196 19.7782 5.32714 19.3834C4.93233 18.9886 4.71053 18.4531 4.71053 17.8947C4.71053 17.3364 4.93233 16.8009 5.32714 16.4061C5.72196 16.0113 6.25744 15.7895 6.81579 15.7895ZM6.81579 16.8421C6.53661 16.8421 6.26887 16.953 6.07147 17.1504C5.87406 17.3478 5.76316 17.6156 5.76316 17.8947C5.76316 18.1739 5.87406 18.4417 6.07147 18.6391C6.26887 18.8365 6.53661 18.9474 6.81579 18.9474C7.09496 18.9474 7.36271 18.8365 7.56011 18.6391C7.75752 18.4417 7.86842 18.1739 7.86842 17.8947C7.86842 17.6156 7.75752 17.3478 7.56011 17.1504C7.36271 16.953 7.09496 16.8421 6.81579 16.8421ZM18.3947 3.15789H3.94211L6.62632 9.47368H15.2368C15.5842 9.47368 15.8895 9.30526 16.0789 9.05263L19.2368 4.84211C19.3737 4.66316 19.4474 4.44211 19.4474 4.21053C19.4474 3.93135 19.3365 3.66361 19.1391 3.4662C18.9417 3.2688 18.6739 3.15789 18.3947 3.15789ZM15.2368 10.5263H6.67895L5.86842 12.1684L5.76316 12.6316C5.76316 12.9108 5.87406 13.1785 6.07147 13.3759C6.26887 13.5733 6.53661 13.6842 6.81579 13.6842H18.3947V14.7368H6.81579C6.25744 14.7368 5.72196 14.515 5.32714 14.1202C4.93233 13.7254 4.71053 13.1899 4.71053 12.6316C4.71021 12.2744 4.80077 11.923 4.97368 11.6105L5.73158 10.0632L1.91053 1.05263H0.5V0H2.60526L3.5 2.10526H18.3947C18.9531 2.10526 19.4886 2.32707 19.8834 2.72188C20.2782 3.11669 20.5 3.65218 20.5 4.21053C20.5 4.73684 20.3211 5.17895 20.0263 5.53684L16.9632 9.63158C16.5842 10.1684 15.9526 10.5263 15.2368 10.5263Z" fill="black"/>
</g>
<defs>
<clipPath id="clip0_1_727">
<rect width="20" height="20" fill="white" transform="translate(0.5)"/>
</clipPath>
</defs>
</svg>
