<svg width="305" height="80" viewBox="0 0 305 80" fill="none" xmlns="http://www.w3.org/2000/svg">
<rect x="0.5" y="0.5" width="304" height="79" fill="#F3FAFD"/>
<rect x="0.5" y="0.5" width="304" height="79" stroke="#EFD7D7"/>
<path d="M100.036 8.5H111.482L86.4819 35.24L116 71.5H92.8072L74.7349 49.52L53.9518 71.5H42.506L69.3133 42.94L41 8.5H64.7952L81.2108 28.66L100.036 8.5ZM95.9699 65.06H102.295L61.3313 14.52H54.4036L95.9699 65.06Z" fill="black"/>
<path d="M134.16 56.5V31.5H126.44V26.7H147.24V31.5H139.64V56.5H134.16ZM153.998 56.5L146.518 34.74H152.038L157.518 51.26L155.598 51.22L161.438 34.74H166.078L171.878 51.22L169.958 51.26L175.438 34.74H180.958L173.478 56.5H168.798L162.878 39.26H164.638L158.638 56.5H153.998ZM183.831 56.5V34.74H189.071V56.5H183.831ZM183.831 32.3V26.7H189.071V32.3H183.831ZM203.829 56.74C201.375 56.74 199.469 56.0733 198.109 54.74C196.775 53.38 196.109 51.4733 196.109 49.02V39.42H192.349V34.74H192.749C193.815 34.74 194.642 34.46 195.229 33.9C195.815 33.34 196.109 32.5267 196.109 31.46V29.78H201.349V34.74H206.349V39.42H201.349V48.74C201.349 49.46 201.469 50.0733 201.709 50.58C201.975 51.0867 202.375 51.4733 202.909 51.74C203.469 52.0067 204.175 52.14 205.029 52.14C205.215 52.14 205.429 52.1267 205.669 52.1C205.935 52.0733 206.189 52.0467 206.429 52.02V56.5C206.055 56.5533 205.629 56.6067 205.149 56.66C204.669 56.7133 204.229 56.74 203.829 56.74ZM220.352 56.74C217.899 56.74 215.992 56.0733 214.632 54.74C213.299 53.38 212.632 51.4733 212.632 49.02V39.42H208.872V34.74H209.272C210.339 34.74 211.166 34.46 211.752 33.9C212.339 33.34 212.632 32.5267 212.632 31.46V29.78H217.872V34.74H222.872V39.42H217.872V48.74C217.872 49.46 217.992 50.0733 218.232 50.58C218.499 51.0867 218.899 51.4733 219.432 51.74C219.992 52.0067 220.699 52.14 221.552 52.14C221.739 52.14 221.952 52.1267 222.192 52.1C222.459 52.0733 222.712 52.0467 222.952 52.02V56.5C222.579 56.5533 222.152 56.6067 221.672 56.66C221.192 56.7133 220.752 56.74 220.352 56.74ZM237.08 56.98C234.84 56.98 232.88 56.4733 231.2 55.46C229.52 54.4467 228.214 53.0733 227.28 51.34C226.347 49.6067 225.88 47.6867 225.88 45.58C225.88 43.3933 226.347 41.46 227.28 39.78C228.24 38.0733 229.534 36.7267 231.16 35.74C232.814 34.7533 234.654 34.26 236.68 34.26C238.387 34.26 239.88 34.54 241.16 35.1C242.467 35.66 243.574 36.4333 244.48 37.42C245.387 38.4067 246.08 39.54 246.56 40.82C247.04 42.0733 247.28 43.4333 247.28 44.9C247.28 45.2733 247.254 45.66 247.2 46.06C247.174 46.46 247.107 46.8067 247 47.1H230.2V43.1H244.04L241.56 44.98C241.8 43.7533 241.734 42.66 241.36 41.7C241.014 40.74 240.427 39.98 239.6 39.42C238.8 38.86 237.827 38.58 236.68 38.58C235.587 38.58 234.614 38.86 233.76 39.42C232.907 39.9533 232.254 40.7533 231.8 41.82C231.374 42.86 231.214 44.1267 231.32 45.62C231.214 46.9533 231.387 48.14 231.84 49.18C232.32 50.1933 233.014 50.98 233.92 51.54C234.854 52.1 235.92 52.38 237.12 52.38C238.32 52.38 239.334 52.1267 240.16 51.62C241.014 51.1133 241.68 50.4333 242.16 49.58L246.4 51.66C245.974 52.7 245.307 53.62 244.4 54.42C243.494 55.22 242.414 55.8467 241.16 56.3C239.934 56.7533 238.574 56.98 237.08 56.98ZM251.253 56.5V34.74H256.173V39.58L255.773 38.86C256.279 37.2333 257.066 36.1 258.133 35.46C259.226 34.82 260.533 34.5 262.053 34.5H263.333V39.14H261.453C259.959 39.14 258.759 39.6067 257.853 40.54C256.946 41.4467 256.493 42.7267 256.493 44.38V56.5H251.253Z" fill="black"/>
</svg>
